<svg width="64" height="64" viewBox="0 0 64 64" fill="none" xmlns="http://www.w3.org/2000/svg">
<path d="M0 32C0 14.3269 14.3269 0 32 0C49.6731 0 64 14.3269 64 32C64 49.6731 49.6731 64 32 64C14.3269 64 0 49.6731 0 32Z" fill="#232B70"/>
<path opacity="0.2" d="M45.75 30.2328V45.75H35.75V35.75H28.25V45.75H18.25V30.2328L31.1156 17.3656C31.2317 17.2494 31.3696 17.1572 31.5213 17.0943C31.6731 17.0314 31.8357 16.999 32 16.999C32.1643 16.999 32.3269 17.0314 32.4787 17.0943C32.6304 17.1572 32.7683 17.2494 32.8844 17.3656L45.75 30.2328Z" fill="white"/>
<path d="M49.5 44.4999H47V33.2499L47.3656 33.6155C47.6006 33.8501 47.9191 33.9817 48.2511 33.9814C48.5831 33.9811 48.9014 33.8489 49.1359 33.614C49.3705 33.379 49.5021 33.0605 49.5018 32.7285C49.5015 32.3965 49.3693 32.0782 49.1344 31.8437L33.7672 16.4812C33.2984 16.0127 32.6628 15.7495 32 15.7495C31.3372 15.7495 30.7016 16.0127 30.2328 16.4812L14.8656 31.8437C14.6313 32.0782 14.4997 32.3963 14.4999 32.7278C14.5 33.0594 14.6319 33.3773 14.8664 33.6116C15.101 33.846 15.419 33.9775 15.7506 33.9774C16.0821 33.9773 16.4 33.8454 16.6344 33.6109L17 33.2499V44.4999H14.5C14.1685 44.4999 13.8505 44.6316 13.6161 44.866C13.3817 45.1005 13.25 45.4184 13.25 45.7499C13.25 46.0814 13.3817 46.3994 13.6161 46.6338C13.8505 46.8682 14.1685 46.9999 14.5 46.9999H49.5C49.8315 46.9999 50.1495 46.8682 50.3839 46.6338C50.6183 46.3994 50.75 46.0814 50.75 45.7499C50.75 45.4184 50.6183 45.1005 50.3839 44.866C50.1495 44.6316 49.8315 44.4999 49.5 44.4999ZM19.5 30.7499L32 18.2499L44.5 30.7499V44.4999H37V35.7499C37 35.4184 36.8683 35.1005 36.6339 34.866C36.3995 34.6316 36.0815 34.4999 35.75 34.4999H28.25C27.9185 34.4999 27.6005 34.6316 27.3661 34.866C27.1317 35.1005 27 35.4184 27 35.7499V44.4999H19.5V30.7499ZM34.5 44.4999H29.5V36.9999H34.5V44.4999Z" fill="white"/>
</svg>
