<svg width="64" height="64" viewBox="0 0 64 64" fill="none" xmlns="http://www.w3.org/2000/svg">
<path d="M0 32C0 14.3269 14.3269 0 32 0C49.6731 0 64 14.3269 64 32C64 49.6731 49.6731 64 32 64C14.3269 64 0 49.6731 0 32Z" fill="#232B70"/>
<path opacity="0.2" d="M49.5 28.25V34.5C49.5 36.4891 48.7098 38.3968 47.3033 39.8033C45.8968 41.2098 43.9891 42 42 42H22C20.0109 42 18.1032 41.2098 16.6967 39.8033C15.2902 38.3968 14.5 36.4891 14.5 34.5V28.25H33.25V34.5H43.25V28.25H49.5Z" fill="white"/>
<path d="M49.5 27.0001H44.5C44.5 26.6685 44.3683 26.3506 44.1339 26.1162C43.8995 25.8818 43.5815 25.7501 43.25 25.7501H33.25C32.9185 25.7501 32.6005 25.8818 32.3661 26.1162C32.1317 26.3506 32 26.6685 32 27.0001H22V20.1251C22 19.6278 22.1975 19.1509 22.5492 18.7992C22.9008 18.4476 23.3777 18.2501 23.875 18.2501C24.3145 18.2483 24.7415 18.3954 25.0866 18.6676C25.4317 18.9397 25.6743 19.3207 25.775 19.7485C25.8437 20.0706 26.0367 20.3526 26.3121 20.5332C26.5876 20.7138 26.9232 20.7784 27.246 20.713C27.5688 20.6475 27.8527 20.4573 28.036 20.1836C28.2193 19.91 28.2873 19.5751 28.225 19.2516C28.0128 18.2569 27.4644 17.3658 26.6721 16.728C25.8798 16.0903 24.892 15.7449 23.875 15.7501C22.7147 15.7501 21.6019 16.211 20.7814 17.0315C19.9609 17.8519 19.5 18.9647 19.5 20.1251V27.0001H14.5C14.1685 27.0001 13.8505 27.1318 13.6161 27.3662C13.3817 27.6006 13.25 27.9185 13.25 28.2501V34.5001C13.2525 36.8199 14.1752 39.0441 15.8156 40.6845C17.456 42.3249 19.6801 43.2476 22 43.2501V45.7501C22 46.0816 22.1317 46.3995 22.3661 46.6339C22.6005 46.8684 22.9185 47.0001 23.25 47.0001C23.5815 47.0001 23.8995 46.8684 24.1339 46.6339C24.3683 46.3995 24.5 46.0816 24.5 45.7501V43.2501H39.5V45.7501C39.5 46.0816 39.6317 46.3995 39.8661 46.6339C40.1005 46.8684 40.4185 47.0001 40.75 47.0001C41.0815 47.0001 41.3995 46.8684 41.6339 46.6339C41.8683 46.3995 42 46.0816 42 45.7501V43.2501C44.3199 43.2476 46.544 42.3249 48.1844 40.6845C49.8249 39.0441 50.7475 36.8199 50.75 34.5001V28.2501C50.75 27.9185 50.6183 27.6006 50.3839 27.3662C50.1495 27.1318 49.8315 27.0001 49.5 27.0001ZM42 28.2501V33.2501H34.5V28.2501H42ZM48.25 34.5001C48.25 35.3208 48.0883 36.1335 47.7742 36.8918C47.4602 37.6501 46.9998 38.3391 46.4194 38.9195C45.8391 39.4998 45.1501 39.9602 44.3918 40.2743C43.6335 40.5884 42.8208 40.7501 42 40.7501H22C20.3424 40.7501 18.7527 40.0916 17.5806 38.9195C16.4085 37.7474 15.75 36.1577 15.75 34.5001V29.5001H32V34.5001C32 34.8316 32.1317 35.1495 32.3661 35.3839C32.6005 35.6184 32.9185 35.7501 33.25 35.7501H43.25C43.5815 35.7501 43.8995 35.6184 44.1339 35.3839C44.3683 35.1495 44.5 34.8316 44.5 34.5001V29.5001H48.25V34.5001Z" fill="white"/>
</svg>
