<svg width="64" height="64" viewBox="0 0 64 64" fill="none" xmlns="http://www.w3.org/2000/svg">
<path d="M0 32C0 14.3269 14.3269 0 32 0C49.6731 0 64 14.3269 64 32C64 49.6731 49.6731 64 32 64C14.3269 64 0 49.6731 0 32Z" fill="#232B70"/>
<path opacity="0.2" d="M50.75 29.5V38.25H29.5V24.5H45.75C47.0761 24.5 48.3479 25.0268 49.2855 25.9645C50.2232 26.9021 50.75 28.1739 50.75 29.5Z" fill="white"/>
<path d="M45.75 23.25H17V19.5C17 19.1685 16.8683 18.8505 16.6339 18.6161C16.3995 18.3817 16.0815 18.25 15.75 18.25C15.4185 18.25 15.1005 18.3817 14.8661 18.6161C14.6317 18.8505 14.5 19.1685 14.5 19.5V44.5C14.5 44.8315 14.6317 45.1495 14.8661 45.3839C15.1005 45.6183 15.4185 45.75 15.75 45.75C16.0815 45.75 16.3995 45.6183 16.6339 45.3839C16.8683 45.1495 17 44.8315 17 44.5V39.5H49.5V44.5C49.5 44.8315 49.6317 45.1495 49.8661 45.3839C50.1005 45.6183 50.4185 45.75 50.75 45.75C51.0815 45.75 51.3995 45.6183 51.6339 45.3839C51.8683 45.1495 52 44.8315 52 44.5V29.5C52 27.8424 51.3415 26.2527 50.1694 25.0806C48.9973 23.9085 47.4076 23.25 45.75 23.25ZM17 25.75H28.25V37H17V25.75ZM30.75 37V25.75H45.75C46.7446 25.75 47.6984 26.1451 48.4016 26.8483C49.1049 27.5516 49.5 28.5054 49.5 29.5V37H30.75Z" fill="white"/>
</svg>
