<svg width="120" height="120" viewBox="0 0 120 120" fill="none" xmlns="http://www.w3.org/2000/svg">
<path d="M90.9116 67.7674C90.9116 67.7664 90.9111 67.7659 90.9111 67.7659L90.9041 67.7319H90.9031C89.1886 59.5204 85.0866 55.3089 85.0866 55.3089L85.0111 55.3204C85.0566 55.2889 85.1011 55.2554 85.1471 55.2254C82.4291 52.3769 78.9136 50.1594 74.9166 49.0524C73.1571 48.4184 71.0796 48.2609 69.1611 48.2609H61.6466C60.0486 48.2609 58.4496 48.4184 56.8511 48.7354C47.8976 50.6354 41.0241 58.0744 39.9051 67.4144L33.9891 101.606H47.8971H57.9701H65.9621H75.8746L81.9496 87.6764L89.9431 101.606H97.9371L90.9116 67.7674Z" fill="#86CFB8"/>
<path d="M41.9831 22.4575C44.2221 22.4575 45.9811 24.1995 45.9811 26.4145C45.9811 28.632 44.2216 30.3725 41.9831 30.3725C39.7451 30.3725 37.9856 28.632 37.9856 26.4145C37.9856 24.1995 39.7451 22.4575 41.9831 22.4575Z" stroke="#232B70" stroke-width="6" stroke-miterlimit="10"/>
<path d="M28.0736 40.1871C31.4301 40.1871 34.1491 42.8821 34.1491 46.2021C34.1491 49.5256 31.4301 52.2186 28.0736 52.2186C24.7191 52.2186 22.0001 49.5256 22.0001 46.2021C21.9996 42.8816 24.7191 40.1871 28.0736 40.1871Z" fill="#232B70"/>
<path d="M92.0236 26.4144C94.2621 26.4144 96.0196 28.1569 96.0196 30.3724C96.0196 32.5894 94.2616 34.3294 92.0236 34.3294C89.7856 34.3294 88.0261 32.5894 88.0261 30.3724C88.0261 28.1569 89.7851 26.4144 92.0236 26.4144Z" fill="#232B70"/>
<path d="M88.9845 68.048C85.1475 68.048 81.951 64.8825 81.951 61.0825C81.951 58.5505 83.231 56.491 85.3085 55.225C86.428 54.5925 87.7065 54.1165 88.985 54.1165C92.822 54.1165 96.0201 57.2825 96.0201 61.0825C96.0201 64.2485 93.941 66.7805 91.064 67.7315C90.425 67.889 89.6245 68.048 88.9845 68.048Z" stroke="#232B70" stroke-width="6" stroke-miterlimit="10"/>
<path d="M69.9609 18.5001H61.9669V40.1871H69.9609V18.5001Z" fill="#4852B0"/>
<path d="M61.8076 48.261C60.2096 48.261 58.6106 48.4185 57.0106 48.7355V40.346H61.9666H69.9606H74.9166V49.0525C72.9976 48.5765 71.0796 48.261 69.1611 48.261H61.8076Z" fill="#232B70"/>
<path d="M65.963 79.9204C64.844 79.9204 63.8855 80.8699 63.8855 81.9779V101.765H65.963H68.042V81.8184C68.042 80.7124 67.082 79.9204 65.963 79.9204Z" fill="#1A8F6A"/>
<path d="M57.9704 87.8361C56.8514 87.8361 55.8929 88.7851 55.8929 89.8936V101.766H57.9704H60.0484V89.8936C60.0489 88.6276 59.0899 87.8361 57.9704 87.8361Z" fill="#1A8F6A"/>
<path d="M48.0586 81.819C46.9396 81.819 45.9811 82.7695 45.9811 83.878V101.766H48.0586H49.9771V83.878C49.9771 82.77 49.0171 81.819 48.0586 81.819Z" fill="#1A8F6A"/>
</svg>
