<svg width="1920" height="270" viewBox="0 0 1920 270" fill="none" xmlns="http://www.w3.org/2000/svg">
<g clip-path="url(#clip0_3323_716)">
<path d="M31.1966 240.575C89.9479 170.638 238.473 114.265 407.898 165.397C503.147 175.38 587.456 237.451 660.973 134.265C750.266 144.042 825.241 174.746 899.024 169.421C1040.08 159.26 1058.27 236.691 1234.42 164.167C1410.57 91.6427 1412.6 220.167 1472.24 169.421C1531.88 118.685 1592.23 56.6022 1699.47 144.265C1806.73 231.928 1867.93 194.299 1890.6 138.026C1913.26 81.7489 1958.1 94.6244 2010.56 172.582C2063.02 250.544 2080.98 342.437 1753.98 378.359C1426.96 414.281 24.4708 396.691 -49.681 374.326C-123.837 351.96 -1.68086 144.041 46.6471 86.5056" fill="#F7FAFC"/>
<path d="M253.411 272.423C253.411 365.012 180.621 440.072 90.8273 440.072C1.03821 440.072 -71.752 365.012 -71.752 272.423C-71.752 179.829 1.03821 104.769 90.8273 104.769C180.621 104.769 253.411 179.829 253.411 272.423Z" fill="#F7FAFC"/>
<path d="M318 128.154C318 165.564 288.597 195.889 252.314 195.889C216.035 195.889 186.627 165.564 186.627 128.154C186.627 90.7482 216.035 60.419 252.314 60.419C288.597 60.419 318 90.7482 318 128.154Z" fill="#F7FAFC"/>
<path d="M363.865 115.63C363.865 136.695 347.303 153.783 326.875 153.783C306.438 153.783 289.877 136.695 289.877 115.63C289.877 94.5563 306.438 77.4783 326.875 77.4783C347.308 77.4783 363.865 94.5563 363.865 115.63Z" fill="#F7FAFC"/>
<path d="M449.769 176.641C449.769 211.638 422.256 240.009 388.322 240.009C354.384 240.009 326.875 211.638 326.875 176.641C326.875 141.644 354.384 113.278 388.322 113.278C422.256 113.278 449.769 141.644 449.769 176.641Z" fill="#F7FAFC"/>
<path d="M111.984 111.85C111.984 137.972 91.4466 159.154 66.11 159.154C40.778 159.154 20.2456 137.968 20.2456 111.85C20.2456 85.7332 40.7826 64.5511 66.11 64.5511C91.4466 64.5511 111.984 85.7332 111.984 111.85Z" fill="#F7FAFC"/>
<path d="M473.571 208.327C473.571 225.833 459.815 240.009 442.843 240.009C425.867 240.009 412.115 225.828 412.115 208.327C412.115 190.827 425.872 176.641 442.843 176.641C459.815 176.641 473.571 190.827 473.571 208.327Z" fill="#F7FAFC"/>
<path d="M30.7235 127.59C30.7235 145.091 16.9669 159.272 -0.00455284 159.272C-16.9715 159.272 -30.7281 145.086 -30.7281 127.59C-30.7281 110.094 -16.9715 95.904 -0.00455284 95.904C16.9669 95.904 30.7235 110.09 30.7235 127.59Z" fill="#F7FAFC"/>
<path d="M579.836 231.89C579.836 267.666 551.708 296.667 517.018 296.667C482.323 296.667 454.196 267.666 454.196 231.89C454.196 196.114 482.323 167.114 517.018 167.114C551.708 167.114 579.836 196.114 579.836 231.89Z" fill="#F7FAFC"/>
<path d="M898.546 110.047C898.546 132.234 881.106 150.223 859.59 150.223C838.073 150.223 820.633 132.234 820.633 110.047C820.633 87.851 838.073 69.8666 859.59 69.8666C881.106 69.8666 898.546 87.851 898.546 110.047Z" fill="#F7FAFC"/>
<path d="M792 201.5C792 265.843 741.41 318 679 318C616.59 318 566 265.843 566 201.5C566 137.157 616.59 85 679 85C741.41 85 792 137.157 792 201.5Z" fill="#F7FAFC"/>
<path d="M898.546 179.487C898.546 217.841 868.396 248.931 831.211 248.931C794.017 248.931 763.867 217.841 763.867 179.487C763.867 141.137 794.017 110.047 831.211 110.047C868.396 110.047 898.546 141.137 898.546 179.487Z" fill="#F7FAFC"/>
<path d="M1196.46 189.902C1196.46 250.945 1148.47 300.428 1089.27 300.428C1030.08 300.428 982.092 250.945 982.092 189.902C982.092 128.863 1030.08 79.38 1089.27 79.38C1148.47 79.38 1196.46 128.863 1196.46 189.902Z" fill="#F7FAFC"/>
<path d="M1930.06 179.313C1930.06 240.352 1882.08 289.834 1822.88 289.834C1763.69 289.834 1715.7 240.352 1715.7 179.313C1715.7 118.269 1763.69 68.7866 1822.88 68.7866C1882.08 68.7819 1930.06 118.269 1930.06 179.313Z" fill="#F7FAFC"/>
<path d="M1734.45 154.083C1734.45 192.334 1704.38 223.358 1667.27 223.358C1630.18 223.358 1600.1 192.339 1600.1 154.083C1600.1 115.823 1630.17 84.8082 1667.27 84.8082C1704.38 84.8129 1734.45 115.823 1734.45 154.083Z" fill="#F7FAFC"/>
<path d="M1582.7 132.356C1582.7 164.615 1557.34 190.77 1526.05 190.77C1494.76 190.77 1469.4 164.615 1469.4 132.356C1469.4 100.093 1494.76 73.9424 1526.05 73.9424C1557.34 73.9424 1582.7 100.088 1582.7 132.356Z" fill="#F7FAFC"/>
<path d="M1495.31 175.115C1495.31 224.814 1456.24 265.098 1408.05 265.098C1359.85 265.098 1320.78 224.814 1320.78 175.115C1320.78 125.421 1359.85 85.1322 1408.05 85.1322C1456.24 85.1322 1495.31 125.421 1495.31 175.115Z" fill="#F7FAFC"/>
<path d="M1005.26 157.981C1005.26 196.33 975.111 227.42 937.922 227.42C900.727 227.42 870.578 196.33 870.578 157.981C870.578 119.626 900.727 88.5365 937.922 88.5365C975.111 88.5318 1005.26 119.626 1005.26 157.981Z" fill="#F7FAFC"/>
<path d="M1363.3 159.727C1363.3 188.784 1340.46 212.328 1312.29 212.328C1284.12 212.328 1261.29 188.779 1261.29 159.727C1261.29 130.675 1284.12 107.131 1312.29 107.131C1340.46 107.131 1363.3 130.671 1363.3 159.727Z" fill="#F7FAFC"/>
<path d="M1281.3 128.398C1281.3 168.607 1249.7 201.209 1210.69 201.209C1171.7 201.209 1140.08 168.607 1140.08 128.398C1140.08 88.189 1171.7 55.5871 1210.69 55.5871C1249.7 55.5871 1281.3 88.189 1281.3 128.398Z" fill="#F7FAFC"/>
</g>
<defs>
<clipPath id="clip0_3323_716">
<rect width="1920" height="270" fill="white"/>
</clipPath>
</defs>
</svg>
