<svg width="64" height="64" viewBox="0 0 64 64" fill="none" xmlns="http://www.w3.org/2000/svg">
<path d="M0 32C0 14.3269 14.3269 0 32 0C49.6731 0 64 14.3269 64 32C64 49.6731 49.6731 64 32 64C14.3269 64 0 49.6731 0 32Z" fill="#232B70"/>
<path opacity="0.2" d="M43.25 18.25V47H38.25V17H42C42.3315 17 42.6495 17.1317 42.8839 17.3661C43.1183 17.6005 43.25 17.9185 43.25 18.25Z" fill="white"/>
<path d="M48.25 45.75H44.5V18.25C44.5 17.587 44.2366 16.9511 43.7678 16.4822C43.2989 16.0134 42.663 15.75 42 15.75H22C21.337 15.75 20.7011 16.0134 20.2322 16.4822C19.7634 16.9511 19.5 17.587 19.5 18.25V45.75H15.75C15.4185 45.75 15.1005 45.8817 14.8661 46.1161C14.6317 46.3505 14.5 46.6685 14.5 47C14.5 47.3315 14.6317 47.6495 14.8661 47.8839C15.1005 48.1183 15.4185 48.25 15.75 48.25H48.25C48.5815 48.25 48.8995 48.1183 49.1339 47.8839C49.3683 47.6495 49.5 47.3315 49.5 47C49.5 46.6685 49.3683 46.3505 49.1339 46.1161C48.8995 45.8817 48.5815 45.75 48.25 45.75ZM42 45.75H39.5V18.25H42V45.75ZM22 18.25H37V45.75H22V18.25ZM34.5 32.625C34.5 32.9958 34.39 33.3584 34.184 33.6667C33.978 33.975 33.6851 34.2154 33.3425 34.3573C32.9999 34.4992 32.6229 34.5363 32.2592 34.464C31.8955 34.3916 31.5614 34.213 31.2992 33.9508C31.037 33.6886 30.8584 33.3545 30.786 32.9908C30.7137 32.6271 30.7508 32.2501 30.8927 31.9075C31.0346 31.5649 31.275 31.272 31.5833 31.066C31.8916 30.86 32.2542 30.75 32.625 30.75C33.1223 30.75 33.5992 30.9475 33.9508 31.2992C34.3025 31.6508 34.5 32.1277 34.5 32.625Z" fill="white"/>
</svg>
