<svg width="120" height="120" viewBox="0 0 120 120" fill="none" xmlns="http://www.w3.org/2000/svg">
<path d="M104.489 42.7709L107.475 39.8284L86.949 18.9999L83.6605 22.2419C82.2785 23.6044 80.49 24.2934 78.6965 24.3349C77.79 24.1274 76.8745 23.9704 75.9485 23.8659C74.923 23.7509 73.894 23.6999 72.8585 23.7139C69.127 23.7554 65.405 24.6489 61.9905 26.3659C65.0645 27.5989 67.9445 29.4549 70.4195 31.9644L70.459 32.0029L70.463 31.9959L84.973 46.8334L85.054 46.9189C85.713 47.5709 86.1265 48.4764 86.1135 49.4799C86.094 51.4434 84.4845 53.0179 82.52 52.9954C81.4715 52.9834 80.537 52.5174 79.8975 51.7899L77.5705 49.4139L65.9925 37.5699L65.9515 37.5259C65.314 36.9034 64.2935 36.9009 63.6585 37.5284C63.5145 37.6704 63.4145 37.8334 63.3335 38.0044L63.057 38.1099C62.9185 38.2119 62.775 38.3124 62.633 38.4149C62.5725 38.5294 62.5235 38.6514 62.433 38.7539L62.2745 38.9059L58.158 42.9639L58.148 42.9559L48.5845 52.3834L33.064 67.6749L27.839 72.8219L27.777 72.8784L27.7215 72.9364C27.033 73.6474 26.686 74.5654 26.686 75.4859C26.686 76.4134 27.035 77.3419 27.7385 78.0519C28.44 78.7674 29.362 79.1289 30.29 79.1434C31.1815 79.1554 32.074 78.8434 32.782 78.2089L32.912 78.0919L33.032 77.9619L38.191 72.8789L51.1285 60.1309C51.7605 61.3344 52.5005 62.4949 53.3465 63.6054L41.035 75.7354L34.0495 82.6179L33.923 82.7309C32.4825 84.1494 32.4685 86.4664 33.8845 87.9074C35.3045 89.3479 37.622 89.3624 39.0625 87.9459L39.151 87.8484L46.1615 80.9389L51.366 75.8114L52.9395 74.2614L58.5685 68.7164C59.7055 69.5414 60.897 70.2569 62.1275 70.8674L57.0685 75.8539L54.1945 78.6829L48.992 83.8104L43.7375 88.9864L43.752 88.9984L43.62 89.1179C42.922 89.8044 42.5625 90.6999 42.5335 91.6064C42.5045 92.5714 42.851 93.5429 43.581 94.2824C44.3095 95.0219 45.2785 95.3834 46.242 95.3694C47.0945 95.3574 47.9375 95.0449 48.616 94.4394L48.7455 94.3219L48.8645 94.1924L54.119 89.0144L59.321 83.8869L62.193 81.0599L67.399 75.9294L70.1165 73.2539C70.2235 73.2659 70.333 73.2609 70.4405 73.2734C72.2255 73.4684 74.03 73.4859 75.815 73.2954L73.099 75.9714L70.228 78.8009L65.023 83.9309L62.1535 86.7579L56.949 91.8879L55.5615 93.2524L55.535 93.2769L55.5085 93.3044C54.0945 94.7249 54.0865 97.0244 55.4955 98.4559C56.835 99.8134 58.963 99.9059 60.4135 98.7294L60.677 98.4949L60.914 98.2359L62.0765 97.0909L67.281 91.9634L70.152 89.1339L75.3555 84.0039L78.226 81.1769L83.432 76.0494L84.5745 74.9214L84.589 74.9359L86.3175 73.2339L91.5185 68.1069L94.0135 65.6504C94.399 65.3239 94.7755 64.9839 95.144 64.6249C95.5085 64.2659 95.85 63.8924 96.1845 63.5119L96.6365 63.0629L96.603 63.0264C99.054 60.0554 100.546 56.5584 101.093 52.9449C101.278 51.6929 101.354 50.4304 101.312 49.1674L101.298 48.8214C101.292 47.3419 101.742 45.8644 102.631 44.6049L104.489 42.7709Z" stroke="#1A8F6A" stroke-width="6" stroke-miterlimit="10"/>
<path d="M56.1345 86.756L59.004 83.9285L56.174 81.0575L53.302 83.885L56.1345 86.756Z" fill="#232B70"/>
<path d="M64.0976 73.2521L61.3801 75.9276L64.2091 78.7991L67.0801 75.9696L64.4216 73.2716C64.3141 73.2591 64.2046 73.2641 64.0976 73.2521Z" fill="#232B70"/>
<path d="M45.3464 75.8099L48.1749 78.6814L51.0489 75.8524L49.3594 74.1379C48.5484 74.2259 47.7354 74.2524 46.9199 74.2599L45.3464 75.8099Z" fill="#232B70"/>
<path d="M34.8615 75.608L34.8755 75.5936L35.0145 75.735L47.326 63.6051C46.4805 62.4941 45.74 61.3341 45.108 60.1306L32.1705 72.8785L34.8615 75.608Z" fill="#232B70"/>
<path d="M49.3595 74.1379L51.049 75.8524L56.108 70.8659C54.8775 70.2554 53.686 69.5404 52.549 68.7149L46.92 74.2599C47.7355 74.2529 48.5485 74.2259 49.3595 74.1379Z" fill="#232B70"/>
<path d="M59.0096 83.928L64.2144 78.7985L61.385 75.9276L56.1802 81.0571L59.0096 83.928Z" fill="#232B70"/>
<path d="M67.0805 75.9695L69.7965 73.2935C68.0115 73.484 66.207 73.4665 64.422 73.2715L67.0805 75.9695Z" fill="#232B70"/>
<path d="M50.9275 91.8878L56.1323 86.7576L53.3011 83.8853L48.0963 89.0155L50.9275 91.8878Z" fill="#232B70"/>
<path d="M42.9777 83.8093L48.18 78.6823L45.3506 75.8114L40.1484 80.9384L42.9777 83.8093Z" fill="#232B70"/>
<path d="M91.6389 74.333L85.5004 68.105L80.2994 73.232L86.3719 79.3945L86.4869 79.527L86.6129 79.6435C87.3134 80.2905 88.2029 80.615 89.0924 80.615C90.0219 80.615 90.9499 80.2665 91.6599 79.563C92.3739 78.862 92.7379 77.9395 92.7519 77.011C92.7644 76.093 92.4314 75.168 91.7559 74.4495L91.7024 74.3885L91.6389 74.333Z" fill="#232B70"/>
<path d="M63.6156 94.3519L61.2621 91.9614L56.0576 97.0889L58.1911 99.2549L58.4266 99.5154L58.6846 99.7549C60.1146 100.953 62.2491 100.89 63.6066 99.5544C65.0376 98.1434 65.0615 95.8434 63.668 94.4029L63.6436 94.3729L63.6156 94.3519Z" fill="#232B70"/>
<path d="M23.4381 64.015C23.7671 64.3985 24.1011 64.7795 24.4636 65.143C24.7296 65.4145 25.0086 65.6635 25.2866 65.915C25.3841 66.0025 25.4766 66.098 25.5741 66.1835L27.0446 67.6745L42.5651 52.383L52.1286 42.956L52.1386 42.964L56.2551 38.906L56.4136 38.754C56.5046 38.6515 56.5531 38.53 56.6136 38.415C56.7551 38.3125 56.8986 38.212 57.0376 38.11L57.3141 38.0045C57.3951 37.8335 57.4951 37.6705 57.6391 37.5285C58.2741 36.901 59.2946 36.9035 59.9321 37.526L59.9731 37.57L71.5511 49.414L73.8781 51.79C74.5176 52.5175 75.4521 52.9835 76.5006 52.9955C78.4651 53.018 80.0741 51.4435 80.0941 49.48C80.1066 48.4765 79.6936 47.571 79.0346 46.919L78.9536 46.8335L64.4436 31.996L64.4396 32.003L64.4001 31.9645C61.9251 29.4545 59.0451 27.599 55.9711 26.366C53.2046 25.255 50.2851 24.642 47.3486 24.5665C46.3131 24.5365 45.2826 24.574 44.2546 24.6735C43.3296 24.764 42.4111 24.9085 41.5006 25.1005C39.7026 25.032 37.9281 24.3175 36.5686 22.9355L33.3271 19.6465L12.5001 40.1705L15.4391 43.157L17.2701 45.0155C18.1421 46.29 18.5646 47.7715 18.5421 49.252L18.5201 49.598C18.4616 50.86 18.5201 52.1255 18.6866 53.378C19.1751 56.9985 20.6201 60.5195 23.0251 63.5245L22.9886 63.561L23.4381 64.015Z" fill="#232B70"/>
<path d="M69.3366 84.002L64.1331 89.132L70.2951 95.39L70.4151 95.5195L70.5451 95.6385C71.2121 96.2565 72.0536 96.579 72.9066 96.6065C73.8676 96.6355 74.8406 96.2885 75.5826 95.558C76.3226 94.8285 76.6831 93.861 76.6666 92.897C76.6516 91.993 76.3056 91.0885 75.6186 90.3925L75.4896 90.275L75.5031 90.263L69.3366 84.002Z" fill="#232B70"/>
<path d="M75.4895 90.2745L75.4865 90.2715L75.4895 90.2745Z" fill="#232B70"/>
<path d="M85.285 84.036L77.4135 76.047L72.2075 81.1745L80.107 89.19L80.192 89.2875C81.614 90.7255 83.9305 90.745 85.3705 89.324C86.811 87.9055 86.829 85.588 85.4085 84.1475L85.285 84.036Z" fill="#232B70"/>
<path d="M98.4695 42.7709L101.456 39.8284L80.9295 18.9999L77.641 22.2419C76.259 23.6044 74.4705 24.2934 72.677 24.3349C71.7705 24.1274 70.855 23.9704 69.929 23.8659C68.9035 23.7509 67.8745 23.6999 66.839 23.7139C63.1075 23.7554 59.3855 24.6489 55.971 26.3659C59.045 27.5989 61.925 29.4549 64.4 31.9644L64.4395 32.0029L64.4435 31.9959L78.9535 46.8334L79.0345 46.9189C79.6935 47.5709 80.107 48.4764 80.094 49.4799C80.0745 51.4434 78.465 53.0179 76.5005 52.9954C75.452 52.9834 74.5175 52.5174 73.878 51.7899L71.551 49.4139L59.973 37.5699L59.932 37.5259C59.2945 36.9034 58.274 36.9009 57.639 37.5284C57.495 37.6704 57.395 37.8334 57.314 38.0044L57.0375 38.1099C56.899 38.2119 56.7555 38.3124 56.6135 38.4149C56.553 38.5294 56.504 38.6514 56.4135 38.7539L56.255 38.9059L52.1385 42.9639L52.1285 42.9559L42.5645 52.3834L27.044 67.6749L21.819 72.8219L21.757 72.8784L21.7015 72.9364C21.013 73.6474 20.666 74.5654 20.666 75.4859C20.666 76.4134 21.015 77.3419 21.7185 78.0519C22.42 78.7674 23.342 79.1289 24.27 79.1434C25.1615 79.1554 26.054 78.8434 26.762 78.2089L26.892 78.0919L27.012 77.9619L32.171 72.8789L45.1085 60.1309C45.7405 61.3344 46.4805 62.4949 47.3265 63.6054L35.015 75.7354L28.0295 82.6179L27.903 82.7309C26.4625 84.1494 26.4485 86.4664 27.8645 87.9074C29.2845 89.3479 31.602 89.3624 33.0425 87.9459L33.131 87.8484L40.1415 80.9389L45.346 75.8114L46.9195 74.2614L52.5485 68.7164C53.6855 69.5414 54.877 70.2569 56.1075 70.8674L51.0485 75.8539L48.1745 78.6829L42.972 83.8104L37.7175 88.9864L37.732 88.9984L37.6 89.1179C36.902 89.8044 36.5425 90.6999 36.5135 91.6064C36.4845 92.5714 36.831 93.5429 37.561 94.2824C38.2895 95.0219 39.2585 95.3834 40.222 95.3694C41.0745 95.3574 41.9175 95.0449 42.596 94.4394L42.7255 94.3219L42.8445 94.1924L48.099 89.0144L53.301 83.8869L56.173 81.0599L61.379 75.9294L64.0965 73.2539C64.2035 73.2659 64.313 73.2609 64.4205 73.2734C66.2055 73.4684 68.01 73.4859 69.795 73.2954L67.079 75.9714L64.208 78.8009L59.003 83.9309L56.1335 86.7579L50.929 91.8879L49.5415 93.2524L49.515 93.2769L49.4885 93.3044C48.0745 94.7249 48.0665 97.0244 49.4755 98.4559C50.815 99.8134 52.943 99.9059 54.3935 98.7294L54.657 98.4949L54.894 98.2359L56.0565 97.0909L61.261 91.9634L64.132 89.1339L69.3355 84.0039L72.206 81.1769L77.412 76.0494L78.5545 74.9214L78.569 74.9359L80.2975 73.2339L85.4985 68.1069L87.9935 65.6504C88.379 65.3239 88.7555 64.9839 89.124 64.6249C89.4885 64.2659 89.83 63.8924 90.1645 63.5119L90.615 63.0644L90.5815 63.0279C93.0325 60.0569 94.525 56.5599 95.0715 52.9464C95.257 51.6944 95.3325 50.4319 95.291 49.1689L95.2765 48.8229C95.2705 47.3434 95.7205 45.8659 96.61 44.6064L98.4695 42.7709Z" fill="#86CFB8"/>
</svg>
