<svg width="120" height="120" viewBox="0 0 120 120" fill="none" xmlns="http://www.w3.org/2000/svg">
<path d="M101.59 35.6999V62.2144C101.59 64.4194 100.995 66.5844 99.86 68.4749L91.6496 82.1599C88.5396 87.3449 86.825 93.3794 86.825 99.1549C86.825 100.499 85.735 101.589 84.39 101.589H60.045H35.705C34.3605 101.589 33.2701 100.499 33.2701 99.1549C33.2701 93.3794 31.5551 87.3449 28.4456 82.1599L20.2356 68.4749C19.1001 66.5849 18.5001 64.4199 18.5001 62.2144V35.6999C18.5001 31.6749 21.7806 28.3949 25.8051 28.3949C29.8296 28.3949 33.11 31.6754 33.11 35.6999V38.5549C33.87 38.2849 34.6896 38.1349 35.5396 38.1349C39.5701 38.1349 42.8445 41.4099 42.8445 45.4349V53.1549C43.8595 53.5149 44.7896 54.0949 45.5746 54.8794L53.0496 62.3544C56.0391 65.3444 58.3896 68.8694 59.9991 72.6749C60.0096 72.6599 60.014 72.6399 60.019 72.6199C61.619 68.7649 63.929 65.3099 66.8795 62.3549C66.8895 62.3499 66.894 62.3449 66.899 62.3399L74.5295 54.8704C75.3245 54.0804 76.2546 53.5104 77.2491 53.1604V45.4354C77.2491 41.4104 80.524 38.1354 84.554 38.1354C85.404 38.1354 86.224 38.2854 86.984 38.5554V35.7004C86.984 31.6754 90.264 28.3954 94.2885 28.3954C98.313 28.3954 101.59 31.6749 101.59 35.6999ZM96.7251 62.2144V35.6999C96.7251 34.3594 95.6306 33.2649 94.2901 33.2649C92.9456 33.2649 91.855 34.3594 91.855 35.6999C91.855 36.5399 91.855 54.3994 91.855 55.1749V55.1799C91.855 55.1849 91.855 55.1849 91.855 55.1849C91.85 57.1349 91.0905 58.9599 89.7155 60.3399L76.5356 73.5199C75.5856 74.4699 74.0456 74.4699 73.0956 73.5199C72.1455 72.5649 72.1455 71.0249 73.0956 70.0749L81.4055 61.7649C82.355 60.8099 82.355 59.2749 81.4055 58.3199C80.4555 57.3744 78.9105 57.3744 77.9655 58.3199C77.955 58.3299 77.9506 58.3344 77.9456 58.3394L70.3151 65.8049C65.2651 70.8649 62.48 77.5849 62.48 84.7344V96.7199H82.0401C82.4551 90.8394 84.3501 84.8649 87.4751 79.6549L95.6851 65.9699C96.3651 64.8349 96.7251 63.5399 96.7251 62.2144ZM86.985 55.1749C86.985 54.1399 86.985 46.4699 86.985 45.4349C86.985 44.0949 85.8946 43.0049 84.5551 43.0049C83.2101 43.0049 82.1201 44.0954 82.1201 45.4349V53.1599C83.1151 53.5099 84.0501 54.0849 84.8501 54.8794C85.4501 55.4844 85.9251 56.1644 86.2751 56.8944C86.7351 56.4349 86.985 55.8249 86.985 55.1749ZM57.6151 96.7199V84.7344C57.6151 77.7849 54.695 70.8849 49.61 65.7999L42.1301 58.3199C41.1801 57.3699 39.64 57.3699 38.6895 58.3199C37.74 59.2694 37.74 60.8144 38.6895 61.7649L46.9995 70.0749C47.9495 71.0244 47.9495 72.5644 46.9995 73.5199C46.05 74.4699 44.5101 74.4699 43.5546 73.5199L30.3795 60.3399C28.999 58.9599 28.2441 57.1299 28.2396 55.1849V55.1799V55.1749C28.2396 54.3899 28.2396 36.5349 28.2396 35.6999C28.2396 34.3594 27.1446 33.2649 25.8046 33.2649C24.4646 33.2649 23.3696 34.3594 23.3696 35.6999V62.2144C23.3696 63.5394 23.7295 64.8344 24.4095 65.9699L32.6196 79.6549C35.7446 84.8649 37.6396 90.8394 38.0546 96.7199H57.6151ZM37.9751 53.1549V45.4349C37.9751 44.0949 36.8851 43.0049 35.5401 43.0049C34.2001 43.0049 33.1106 44.0954 33.1106 45.4349C33.1106 46.4699 33.1106 54.1399 33.1106 55.1749C33.1106 55.8249 33.3606 56.4349 33.8206 56.8944C34.1701 56.1644 34.645 55.4844 35.2455 54.8794C36.03 54.0949 36.9601 53.5149 37.9751 53.1549Z" fill="#86CFB8"/>
<path d="M96.725 35.7V62.2145C96.725 63.5395 96.365 64.8345 95.685 65.97L87.475 79.655C84.35 84.865 82.455 90.8395 82.04 96.72H62.48V84.7345C62.48 77.5845 65.265 70.865 70.315 65.805L77.9455 58.3395C77.9505 58.3345 77.9555 58.3295 77.9655 58.32C78.9105 57.3745 80.455 57.3745 81.4055 58.32C82.355 59.2745 82.355 60.8095 81.4055 61.765L73.0955 70.075C72.1455 71.0245 72.1455 72.5645 73.0955 73.52C74.045 74.47 75.585 74.47 76.5355 73.52L89.7155 60.34C91.0905 58.96 91.8505 57.1355 91.855 55.185C91.855 55.185 91.855 55.185 91.855 55.18V55.175C91.855 54.3995 91.855 36.5395 91.855 35.7C91.855 34.3595 92.9455 33.265 94.29 33.265C95.63 33.265 96.725 34.3595 96.725 35.7Z" fill="#1A8F6A"/>
<path d="M86.985 45.4349C86.985 46.4699 86.985 54.1399 86.985 55.1749C86.985 55.8249 86.735 56.4349 86.2745 56.8944C85.925 56.1644 85.45 55.4844 84.8495 54.8794C84.0495 54.0844 83.1145 53.5099 82.1195 53.1599V45.4349C82.1195 44.0949 83.2095 43.0049 84.5545 43.0049C85.895 43.0044 86.985 44.0949 86.985 45.4349Z" fill="#1A8F6A"/>
<path d="M57.615 84.7345V96.72H38.055C37.64 90.8395 35.745 84.865 32.62 79.655L24.41 65.97C23.73 64.8345 23.37 63.54 23.37 62.2145V35.7C23.37 34.3595 24.465 33.265 25.805 33.265C27.145 33.265 28.24 34.3595 28.24 35.7C28.24 36.535 28.24 54.39 28.24 55.175V55.18V55.185C28.245 57.13 29 58.96 30.38 60.34L43.555 73.52C44.51 74.47 46.05 74.47 47 73.52C47.95 72.565 47.95 71.025 47 70.075L38.69 61.765C37.7405 60.815 37.7405 59.27 38.69 58.32C39.64 57.37 41.18 57.37 42.1305 58.32L49.6105 65.8C54.695 70.885 57.615 77.785 57.615 84.7345Z" fill="#1A8F6A"/>
<path d="M37.975 45.4349V53.1549C36.96 53.5149 36.03 54.0949 35.245 54.8794C34.645 55.4844 34.17 56.1644 33.82 56.8944C33.36 56.4344 33.11 55.8244 33.11 55.1749C33.11 54.1399 33.11 46.4699 33.11 45.4349C33.11 44.0949 34.2 43.0049 35.5395 43.0049C36.885 43.0044 37.975 44.0949 37.975 45.4349Z" fill="#1A8F6A"/>
<path d="M68.475 18.5001C74.77 18.5001 79.335 23.7251 79.335 30.0801C79.335 38.2001 71.685 43.2801 61.64 51.9851C61.185 52.3801 60.615 52.5801 60.045 52.5801C59.48 52.5801 58.91 52.3801 58.455 51.9851C48.415 43.2856 40.76 38.2006 40.76 30.0801C40.76 23.7251 45.32 18.5001 51.62 18.5001C54.97 18.5001 57.8805 20.0306 60.045 22.9351C62.215 20.0301 65.125 18.5001 68.475 18.5001ZM74.465 30.0801C74.465 26.2551 71.89 23.3651 68.475 23.3651C64.03 23.3651 62.455 28.6696 62.39 28.8951C62.1 29.9501 61.14 30.6756 60.045 30.6756C58.955 30.6756 58 29.9456 57.705 28.8951C57.64 28.6701 56.065 23.3651 51.62 23.3651C48.205 23.3651 45.6305 26.2546 45.6305 30.0801C45.6305 35.3501 51.19 39.3701 60.045 46.9351C68.895 39.3751 74.465 35.3501 74.465 30.0801Z" fill="#232B70"/>
<path d="M68.475 23.365C71.89 23.365 74.465 26.2545 74.465 30.08C74.465 35.35 68.8945 39.375 60.0445 46.935C51.1895 39.37 45.63 35.35 45.63 30.08C45.63 26.255 48.2045 23.365 51.6195 23.365C56.0645 23.365 57.6395 28.6695 57.7045 28.895C57.9995 29.9455 58.9545 30.6755 60.0445 30.6755C61.1395 30.6755 62.0995 29.9505 62.3895 28.895C62.455 28.67 64.03 23.365 68.475 23.365Z" fill="#4852B0"/>
</svg>
