<svg width="64" height="64" viewBox="0 0 64 64" fill="none" xmlns="http://www.w3.org/2000/svg">
<path d="M0 32C0 14.3269 14.3269 0 32 0C49.6731 0 64 14.3269 64 32C64 49.6731 49.6731 64 32 64C14.3269 64 0 49.6731 0 32Z" fill="#232B70"/>
<path opacity="0.2" d="M40.75 29.5V40.75H23.25V29.5H40.75Z" fill="white"/>
<path d="M44.5 17H19.5C18.837 17 18.2011 17.2634 17.7322 17.7322C17.2634 18.2011 17 18.837 17 19.5V44.5C17 45.163 17.2634 45.7989 17.7322 46.2678C18.2011 46.7366 18.837 47 19.5 47H44.5C45.163 47 45.7989 46.7366 46.2678 46.2678C46.7366 45.7989 47 45.163 47 44.5V19.5C47 18.837 46.7366 18.2011 46.2678 17.7322C45.7989 17.2634 45.163 17 44.5 17ZM44.5 44.5H19.5V19.5H44.5V44.5ZM23.25 23.875C23.25 23.5042 23.36 23.1416 23.566 22.8333C23.772 22.525 24.0649 22.2846 24.4075 22.1427C24.7501 22.0008 25.1271 21.9637 25.4908 22.036C25.8545 22.1084 26.1886 22.287 26.4508 22.5492C26.713 22.8114 26.8916 23.1455 26.964 23.5092C27.0363 23.8729 26.9992 24.2499 26.8573 24.5925C26.7154 24.9351 26.475 25.228 26.1667 25.434C25.8584 25.64 25.4958 25.75 25.125 25.75C24.6277 25.75 24.1508 25.5525 23.7992 25.2008C23.4475 24.8492 23.25 24.3723 23.25 23.875ZM30.125 23.875C30.125 23.5042 30.235 23.1416 30.441 22.8333C30.647 22.525 30.9399 22.2846 31.2825 22.1427C31.6251 22.0008 32.0021 21.9637 32.3658 22.036C32.7295 22.1084 33.0636 22.287 33.3258 22.5492C33.588 22.8114 33.7666 23.1455 33.839 23.5092C33.9113 23.8729 33.8742 24.2499 33.7323 24.5925C33.5904 24.9351 33.35 25.228 33.0417 25.434C32.7334 25.64 32.3708 25.75 32 25.75C31.5027 25.75 31.0258 25.5525 30.6742 25.2008C30.3225 24.8492 30.125 24.3723 30.125 23.875ZM37 23.875C37 23.5042 37.11 23.1416 37.316 22.8333C37.522 22.525 37.8149 22.2846 38.1575 22.1427C38.5001 22.0008 38.8771 21.9637 39.2408 22.036C39.6045 22.1084 39.9386 22.287 40.2008 22.5492C40.463 22.8114 40.6416 23.1455 40.714 23.5092C40.7863 23.8729 40.7492 24.2499 40.6073 24.5925C40.4654 24.9351 40.225 25.228 39.9167 25.434C39.6084 25.64 39.2458 25.75 38.875 25.75C38.3777 25.75 37.9008 25.5525 37.5492 25.2008C37.1975 24.8492 37 24.3723 37 23.875ZM40.75 28.25H23.25C22.9185 28.25 22.6005 28.3817 22.3661 28.6161C22.1317 28.8505 22 29.1685 22 29.5V40.75C22 41.0815 22.1317 41.3995 22.3661 41.6339C22.6005 41.8683 22.9185 42 23.25 42H40.75C41.0815 42 41.3995 41.8683 41.6339 41.6339C41.8683 41.3995 42 41.0815 42 40.75V29.5C42 29.1685 41.8683 28.8505 41.6339 28.6161C41.3995 28.3817 41.0815 28.25 40.75 28.25ZM39.5 39.5H24.5V30.75H39.5V39.5Z" fill="white"/>
</svg>
