<svg width="64" height="64" viewBox="0 0 64 64" fill="none" xmlns="http://www.w3.org/2000/svg">
<path d="M0 32C0 14.3269 14.3269 0 32 0C49.6731 0 64 14.3269 64 32C64 49.6731 49.6731 64 32 64C14.3269 64 0 49.6731 0 32Z" fill="#232B70"/>
<path opacity="0.2" d="M40.75 32C40.75 33.7306 40.2368 35.4223 39.2754 36.8612C38.3139 38.3002 36.9473 39.4217 35.3485 40.0839C33.7496 40.7462 31.9903 40.9195 30.293 40.5819C28.5956 40.2442 27.0365 39.4109 25.8128 38.1872C24.5891 36.9635 23.7558 35.4044 23.4181 33.707C23.0805 32.0097 23.2538 30.2504 23.9161 28.6515C24.5783 27.0527 25.6998 25.6861 27.1388 24.7246C28.5777 23.7632 30.2694 23.25 32 23.25C34.3206 23.25 36.5462 24.1719 38.1872 25.8128C39.8281 27.4538 40.75 29.6794 40.75 32Z" fill="white"/>
<path d="M44.5 17H19.5C18.837 17 18.2011 17.2634 17.7322 17.7322C17.2634 18.2011 17 18.837 17 19.5V44.5C17 45.163 17.2634 45.7989 17.7322 46.2678C18.2011 46.7366 18.837 47 19.5 47H44.5C45.163 47 45.7989 46.7366 46.2678 46.2678C46.7366 45.7989 47 45.163 47 44.5V19.5C47 18.837 46.7366 18.2011 46.2678 17.7322C45.7989 17.2634 45.163 17 44.5 17ZM44.5 44.5H19.5V19.5H44.5V44.5ZM32 22C30.0222 22 28.0888 22.5865 26.4443 23.6853C24.7998 24.7841 23.5181 26.3459 22.7612 28.1732C22.0043 30.0004 21.8063 32.0111 22.1921 33.9509C22.578 35.8907 23.5304 37.6725 24.9289 39.0711C26.3275 40.4696 28.1093 41.422 30.0491 41.8079C31.9889 42.1937 33.9996 41.9957 35.8268 41.2388C37.6541 40.4819 39.2159 39.2002 40.3147 37.5557C41.4135 35.9112 42 33.9778 42 32C41.9971 29.3487 40.9426 26.8069 39.0679 24.9321C37.1931 23.0574 34.6513 22.0029 32 22ZM32 39.5C30.5166 39.5 29.0666 39.0601 27.8332 38.236C26.5999 37.4119 25.6386 36.2406 25.0709 34.8701C24.5032 33.4997 24.3547 31.9917 24.6441 30.5368C24.9335 29.082 25.6478 27.7456 26.6967 26.6967C27.7456 25.6478 29.082 24.9335 30.5368 24.6441C31.9917 24.3547 33.4997 24.5032 34.8701 25.0709C36.2406 25.6386 37.4119 26.5999 38.236 27.8332C39.0601 29.0666 39.5 30.5166 39.5 32C39.4979 33.9885 38.7071 35.8949 37.301 37.301C35.8949 38.7071 33.9885 39.4979 32 39.5ZM43.25 22.625C43.25 22.9958 43.14 23.3584 42.934 23.6667C42.728 23.975 42.4351 24.2154 42.0925 24.3573C41.7499 24.4992 41.3729 24.5363 41.0092 24.464C40.6455 24.3916 40.3114 24.213 40.0492 23.9508C39.787 23.6886 39.6084 23.3545 39.536 22.9908C39.4637 22.6271 39.5008 22.2501 39.6427 21.9075C39.7846 21.5649 40.025 21.272 40.3333 21.066C40.6416 20.86 41.0042 20.75 41.375 20.75C41.8723 20.75 42.3492 20.9475 42.7008 21.2992C43.0525 21.6508 43.25 22.1277 43.25 22.625ZM31.6344 30.3844L29.1344 32.8844C28.8998 33.1189 28.5817 33.2507 28.25 33.2507C27.9183 33.2507 27.6002 33.1189 27.3656 32.8844C27.1311 32.6498 26.9993 32.3317 26.9993 32C26.9993 31.6683 27.1311 31.3502 27.3656 31.1156L29.8656 28.6156C30.1002 28.3811 30.4183 28.2493 30.75 28.2493C31.0817 28.2493 31.3998 28.3811 31.6344 28.6156C31.8689 28.8502 32.0007 29.1683 32.0007 29.5C32.0007 29.8317 31.8689 30.1498 31.6344 30.3844ZM36.6344 29.8656C36.7506 29.9817 36.8428 30.1196 36.9057 30.2713C36.9686 30.4231 37.001 30.5857 37.001 30.75C37.001 30.9143 36.9686 31.0769 36.9057 31.2287C36.8428 31.3804 36.7506 31.5183 36.6344 31.6344L31.6344 36.6344C31.5182 36.7505 31.3804 36.8426 31.2286 36.9055C31.0769 36.9683 30.9142 37.0007 30.75 37.0007C30.5858 37.0007 30.4231 36.9683 30.2714 36.9055C30.1196 36.8426 29.9818 36.7505 29.8656 36.6344C29.7495 36.5182 29.6574 36.3804 29.5945 36.2286C29.5317 36.0769 29.4993 35.9142 29.4993 35.75C29.4993 35.5858 29.5317 35.4231 29.5945 35.2714C29.6574 35.1196 29.7495 34.9818 29.8656 34.8656L34.8656 29.8656C34.9817 29.7494 35.1196 29.6572 35.2713 29.5943C35.4231 29.5314 35.5857 29.499 35.75 29.499C35.9143 29.499 36.0769 29.5314 36.2287 29.5943C36.3804 29.6572 36.5183 29.7494 36.6344 29.8656Z" fill="white"/>
</svg>
