<svg width="64" height="64" viewBox="0 0 64 64" fill="none" xmlns="http://www.w3.org/2000/svg">
<path d="M0 32C0 14.3269 14.3269 0 32 0C49.6731 0 64 14.3269 64 32C64 49.6731 49.6731 64 32 64C14.3269 64 0 49.6731 0 32Z" fill="#232B70"/>
<path opacity="0.2" d="M49.5 32C49.5 33.3261 48.9732 34.5979 48.0355 35.5355C47.0979 36.4732 45.8261 37 44.5 37V43.25C44.5 43.5815 44.3683 43.8995 44.1339 44.1339C43.8995 44.3683 43.5815 44.5 43.25 44.5H20.75C20.4185 44.5 20.1005 44.3683 19.8661 44.1339C19.6317 43.8995 19.5 43.5815 19.5 43.25V37C18.1739 37 16.9021 36.4732 15.9645 35.5355C15.0268 34.5979 14.5 33.3261 14.5 32C14.5 30.6739 15.0268 29.4021 15.9645 28.4645C16.9021 27.5268 18.1739 27 19.5 27V23.25C19.5 21.9239 20.0268 20.6521 20.9645 19.7145C21.9021 18.7768 23.1739 18.25 24.5 18.25H39.5C40.8261 18.25 42.0979 18.7768 43.0355 19.7145C43.9732 20.6521 44.5 21.9239 44.5 23.25V27C45.8261 27 47.0979 27.5268 48.0355 28.4645C48.9732 29.4021 49.5 30.6739 49.5 32Z" fill="white"/>
<path d="M45.75 25.875V23.25C45.75 21.5924 45.0916 20.0027 43.9195 18.8306C42.7474 17.6585 41.1576 17 39.5 17H24.5C22.8424 17 21.2527 17.6585 20.0806 18.8306C18.9085 20.0027 18.25 21.5924 18.25 23.25V25.875C16.8372 26.1619 15.5669 26.9284 14.6546 28.0447C13.7422 29.1609 13.2438 30.5583 13.2438 32C13.2438 33.4417 13.7422 34.8391 14.6546 35.9553C15.5669 37.0716 16.8372 37.8381 18.25 38.125V43.25C18.25 43.913 18.5134 44.5489 18.9823 45.0178C19.4511 45.4866 20.087 45.75 20.75 45.75H43.25C43.9131 45.75 44.549 45.4866 45.0178 45.0178C45.4866 44.5489 45.75 43.913 45.75 43.25V38.125C47.1629 37.8381 48.4331 37.0716 49.3455 35.9553C50.2579 34.8391 50.7563 33.4417 50.7563 32C50.7563 30.5583 50.2579 29.1609 49.3455 28.0447C48.4331 26.9284 47.1629 26.1619 45.75 25.875ZM24.5 19.5H39.5C40.4946 19.5 41.4484 19.8951 42.1517 20.5983C42.855 21.3016 43.25 22.2554 43.25 23.25V25.875C41.8393 26.1651 40.5717 26.9327 39.6609 28.0484C38.7501 29.1641 38.2518 30.5597 38.25 32H25.75C25.7483 30.5597 25.25 29.1641 24.3392 28.0484C23.4284 26.9327 22.1608 26.1651 20.75 25.875V23.25C20.75 22.2554 21.1451 21.3016 21.8484 20.5983C22.5517 19.8951 23.5055 19.5 24.5 19.5ZM44.561 35.75H44.5C44.1685 35.75 43.8506 35.8817 43.6162 36.1161C43.3817 36.3505 43.25 36.6685 43.25 37V43.25H20.75V37C20.75 36.6685 20.6183 36.3505 20.3839 36.1161C20.1495 35.8817 19.8316 35.75 19.5 35.75H19.4391C18.7001 35.738 17.9812 35.5079 17.3726 35.0886C16.764 34.6693 16.2928 34.0795 16.0183 33.3933C15.7438 32.7071 15.6782 31.9551 15.8297 31.2318C15.9812 30.5084 16.3431 29.8459 16.8698 29.3276C17.3966 28.8092 18.0649 28.458 18.7906 28.3182C19.5163 28.1784 20.2671 28.2561 20.9488 28.5417C21.6305 28.8272 22.2126 29.3078 22.622 29.9231C23.0315 30.5384 23.2499 31.2609 23.25 32V38.25C23.25 38.5815 23.3817 38.8995 23.6162 39.1339C23.8506 39.3683 24.1685 39.5 24.5 39.5C24.8316 39.5 25.1495 39.3683 25.3839 39.1339C25.6183 38.8995 25.75 38.5815 25.75 38.25V34.5H38.25V38.25C38.25 38.5815 38.3817 38.8995 38.6162 39.1339C38.8506 39.3683 39.1685 39.5 39.5 39.5C39.8316 39.5 40.1495 39.3683 40.3839 39.1339C40.6183 38.8995 40.75 38.5815 40.75 38.25V32C40.7501 31.2609 40.9686 30.5384 41.378 29.9231C41.7875 29.3078 42.3696 28.8272 43.0513 28.5417C43.7329 28.2561 44.4838 28.1784 45.2095 28.3182C45.9352 28.458 46.6034 28.8092 47.1302 29.3276C47.657 29.8459 48.0189 30.5084 48.1704 31.2318C48.3219 31.9551 48.2563 32.7071 47.9818 33.3933C47.7073 34.0795 47.2361 34.6693 46.6275 35.0886C46.0189 35.5079 45.2999 35.738 44.561 35.75Z" fill="white"/>
</svg>
