<svg width="242" height="55" viewBox="0 0 242 55" fill="none" xmlns="http://www.w3.org/2000/svg">
<path d="M68.4761 41.5953H82.4018V48.2624H60V6.33527H68.4761V41.5953Z" fill="#1A8F6A"/>
<path d="M87.6393 22.5535C88.9914 19.9515 90.8272 17.9488 93.1491 16.5469C95.4702 15.1457 98.0628 14.4444 100.929 14.4444C103.432 14.4444 105.621 14.9455 107.498 15.9461C109.375 16.9474 110.879 18.2088 112.009 19.7301V14.9847H120.546V48.2624H112.009V43.3969C110.919 44.9583 109.415 46.2503 107.498 47.2713C105.581 48.2923 103.371 48.8028 100.868 48.8028C98.043 48.8028 95.4702 48.0818 93.1491 46.6406C90.8272 45.1994 88.9914 43.1668 87.6393 40.5436C86.2864 37.9212 85.6103 34.9077 85.6103 31.5038C85.6103 28.1392 86.2864 25.1563 87.6393 22.5535ZM110.799 26.3674C109.99 24.9058 108.901 23.7842 107.528 23.0036C106.156 22.2229 104.682 21.8325 103.109 21.8325C101.535 21.8325 100.081 22.2135 98.7491 22.9737C97.4168 23.7348 96.337 24.8461 95.5097 26.3077C94.6825 27.7701 94.2692 29.5019 94.2692 31.5038C94.2692 33.5066 94.6825 35.258 95.5097 36.7596C96.337 38.2613 97.4271 39.4127 98.78 40.2138C100.131 41.0156 101.574 41.4154 103.109 41.4154C104.682 41.4154 106.156 41.0243 107.528 40.2436C108.9 39.4629 109.99 38.3422 110.799 36.8798C111.605 35.4182 112.009 33.666 112.009 31.624C112.009 29.5812 111.605 27.8298 110.799 26.3674Z" fill="#1A8F6A"/>
<path d="M157.114 18.2582C159.575 20.7613 160.808 24.2555 160.808 28.74V48.2616H152.331V29.8812C152.331 27.2384 151.665 25.2058 150.334 23.7842C149.001 22.3635 147.185 21.6519 144.884 21.6519C142.542 21.6519 140.696 22.3635 139.344 23.7842C137.991 25.2066 137.315 27.2384 137.315 29.8812V48.2616H128.839V14.9847H137.315V19.1292C138.445 17.6881 139.889 16.5571 141.645 15.7356C143.401 14.9156 145.327 14.5041 147.427 14.5041C151.423 14.5041 154.652 15.756 157.114 18.2582Z" fill="#1A8F6A"/>
<path d="M168.709 22.5535C170.061 19.9516 171.908 17.9488 174.249 16.5469C176.59 15.1458 179.193 14.4444 182.06 14.4444C184.24 14.4444 186.318 14.9156 188.296 15.8558C190.273 16.7974 191.847 18.0486 193.019 19.6099V3.81183H201.616V48.2624H193.019V43.3373C191.968 44.9795 190.495 46.3013 188.598 47.3019C186.702 48.3025 184.502 48.8036 181.999 48.8036C179.174 48.8036 176.59 48.0826 174.249 46.6414C171.908 45.2002 170.061 43.1676 168.709 40.5444C167.356 37.922 166.68 34.9085 166.68 31.5046C166.68 28.1392 167.356 25.1563 168.709 22.5535ZM191.869 26.3674C191.06 24.9058 189.971 23.7842 188.598 23.0036C187.226 22.2229 185.753 21.8325 184.179 21.8325C182.605 21.8325 181.152 22.2135 179.819 22.9737C178.487 23.7348 177.407 24.8461 176.58 26.3077C175.753 27.7701 175.339 29.5019 175.339 31.5038C175.339 33.5066 175.753 35.258 176.58 36.7596C177.407 38.2613 178.497 39.4127 179.85 40.2138C181.201 41.0156 182.644 41.4154 184.179 41.4154C185.753 41.4154 187.227 41.0243 188.598 40.2436C189.97 39.4629 191.06 38.3422 191.869 36.8798C192.675 35.4182 193.079 33.666 193.079 31.624C193.079 29.5812 192.675 27.8298 191.869 26.3674Z" fill="#1A8F6A"/>
<g clip-path="url(#clip0_3387_1084)">
<path d="M10.0586 16.9413L38.1938 45.0764C39.215 46.0976 39.2146 47.753 38.1938 48.7738L37.1461 49.8215C36.1252 50.8423 34.4699 50.8427 33.4487 49.8215L23.4918 39.8647L21.8168 41.5398L19.815 39.5379L15.5922 43.7607L14.6749 42.8434L5.34425 53.948C4.23095 55.2721 2.22268 55.3592 0.999443 54.136C-0.224171 52.9124 -0.136986 50.9041 1.18784 49.7916L12.2925 40.461L11.3751 39.5436L15.5979 35.3209L13.5961 33.319L15.2711 31.644L5.31393 21.6868C4.29311 20.666 4.29311 19.0102 5.31393 17.9894L6.36166 16.9417C7.38209 15.9205 9.03783 15.9205 10.0586 16.9413Z" fill="#2C2453"/>
<path fill-rule="evenodd" clip-rule="evenodd" d="M29.9806 0C40.5897 0 49.19 8.60031 49.19 19.2093V41.0751C49.19 42.8917 47.7173 44.3644 45.9007 44.3644H41.6944L11.4522 14.1222C13.682 5.98196 21.1328 0 29.9806 0Z" fill="#1A8F6A"/>
<path fill-rule="evenodd" clip-rule="evenodd" d="M29.9806 1.82946C39.5793 1.82946 47.3605 9.61069 47.3605 19.2093V41.0751C47.3605 41.8813 46.7069 42.5349 45.9007 42.5349H42.4522L13.5233 13.606C15.8547 6.75552 22.3445 1.82946 29.9806 1.82946ZM11.4522 14.1222L41.6944 44.3644H45.9007C47.7173 44.3644 49.19 42.8917 49.19 41.0751V19.2093C49.19 8.60031 40.5897 0 29.9806 0C21.1327 0 13.682 5.98196 11.4522 14.1222Z" fill="#0B6F4E"/>
<path fill-rule="evenodd" clip-rule="evenodd" d="M27.5161 30.186H38.2133V1.84857C39.521 2.46982 40.7474 3.23448 41.8722 4.12223V30.186H49.19V33.8449H41.8722V44.3643L41.6944 44.3643L38.2133 40.8832V33.8449L31.175 33.845L27.5161 30.186Z" fill="#0B6F4E"/>
<path d="M23.7726 13.139C23.7483 13.0555 23.7483 12.9668 23.7726 12.8832L25.2208 7.91101C25.3487 7.4717 25.9711 7.47173 26.099 7.91104L27.5468 12.8833C27.5711 12.9668 27.5711 13.0555 27.5468 13.139L26.099 18.1112C25.9711 18.5506 25.3487 18.5506 25.2208 18.1113L23.7726 13.139Z" fill="#EDF2F7"/>
<path d="M25.7878 14.8985C25.7043 14.9228 25.6156 14.9228 25.532 14.8985L20.5596 13.4503C20.1203 13.3223 20.1203 12.7 20.5596 12.572L25.532 11.1238C25.6156 11.0995 25.7043 11.0995 25.7878 11.1238L30.7599 12.572C31.1992 12.7 31.1992 13.3223 30.7599 13.4503L25.7878 14.8985Z" fill="#EDF2F7"/>
<path d="M31.3562 22.0939C31.3318 22.0103 31.3318 21.9215 31.3562 21.8379L31.8163 20.2593C31.9443 19.8201 32.5666 19.8202 32.6945 20.2594L33.1541 21.838C33.1784 21.9215 33.1784 22.0102 33.1541 22.0937L32.6945 23.6723C32.5666 24.1116 31.9443 24.1117 31.8163 23.6724L31.3562 22.0939Z" fill="#EDF2F7"/>
<path d="M32.3835 22.8644C32.2999 22.8887 32.2112 22.8887 32.1277 22.8644L30.5501 22.405C30.1108 22.2771 30.1108 21.6547 30.5501 21.5268L32.1277 21.0674C32.2112 21.043 32.2999 21.043 32.3835 21.0674L33.9611 21.5268C34.4004 21.6547 34.4004 22.2771 33.9611 22.405L32.3835 22.8644Z" fill="#EDF2F7"/>
</g>
<path fill-rule="evenodd" clip-rule="evenodd" d="M225.046 55L242 14.9848H232.979L224.2 38.2315L215.541 14.9848H206.036L219.477 47.4213L216.156 55H225.046Z" fill="#1A8F6A"/>
<defs>
<clipPath id="clip0_3387_1084">
<rect width="50" height="55" fill="white"/>
</clipPath>
</defs>
</svg>
