<svg width="64" height="64" viewBox="0 0 64 64" fill="none" xmlns="http://www.w3.org/2000/svg">
<path d="M0 32C0 14.3269 14.3269 0 32 0C49.6731 0 64 14.3269 64 32C64 49.6731 49.6731 64 32 64C14.3269 64 0 49.6731 0 32Z" fill="#232B70"/>
<path opacity="0.2" d="M43.25 45.0422V47C43.25 47.3315 43.1183 47.6495 42.8839 47.8839C42.6495 48.1183 42.3315 48.25 42 48.25H25.75C25.4185 48.25 25.1005 48.1183 24.8661 47.8839C24.6317 47.6495 24.5 47.3315 24.5 47V38.1531C24.4995 37.4031 24.6678 36.6625 24.9924 35.9863C25.317 35.3102 25.7895 34.7157 26.375 34.2469L28.875 32.25C29.4605 31.7812 29.933 31.1867 30.2576 30.5105C30.5822 29.8343 30.7505 29.0938 30.75 28.3438V23.25H37C41.0844 29.7848 43.2501 37.336 43.25 45.0422Z" fill="white"/>
<path d="M43.25 24.5C43.5815 24.5 43.8995 24.3683 44.1339 24.1339C44.3683 23.8995 44.5 23.5815 44.5 23.25C44.4975 20.9301 43.5749 18.706 41.9344 17.0656C40.294 15.4252 38.0699 14.5025 35.75 14.5H24.5C23.837 14.5 23.2011 14.7634 22.7322 15.2322C22.2634 15.7011 22 16.337 22 17V24.5C22 25.4946 21.6049 26.4484 20.9017 27.1517C20.1984 27.8549 19.2446 28.25 18.25 28.25C17.9185 28.25 17.6005 28.3817 17.3661 28.6161C17.1317 28.8505 17 29.1685 17 29.5C17 29.8315 17.1317 30.1495 17.3661 30.3839C17.6005 30.6183 17.9185 30.75 18.25 30.75C19.9076 30.75 21.4973 30.0915 22.6694 28.9194C23.8415 27.7473 24.5 26.1576 24.5 24.5H29.5V28.3469C29.5016 28.9094 29.3759 29.465 29.1324 29.9721C28.8889 30.4791 28.5338 30.9246 28.0938 31.275L25.5938 33.2734C24.8605 33.8575 24.2688 34.5998 23.8629 35.4448C23.457 36.2898 23.2475 37.2157 23.25 38.1531V47C23.25 47.663 23.5134 48.2989 23.9822 48.7678C24.4511 49.2366 25.087 49.5 25.75 49.5H42C42.663 49.5 43.2989 49.2366 43.7678 48.7678C44.2366 48.2989 44.5 47.663 44.5 47V45.0422C44.5021 37.8548 42.6738 30.7853 39.1875 24.5H43.25ZM24.5 17H35.75C37.1902 17.0021 38.5857 17.5004 39.7013 18.4112C40.817 19.3219 41.5847 20.5894 41.875 22H24.5V17ZM42 45.0422V47H25.75V38.1531C25.7484 37.5906 25.8741 37.035 26.1176 36.5279C26.3611 36.0209 26.7162 35.5754 27.1562 35.225L29.6562 33.2266C30.3895 32.6425 30.9812 31.9002 31.3871 31.0552C31.793 30.2102 32.0025 29.2843 32 28.3469V24.5H36.3C40.0316 30.7021 42.0022 37.804 42 45.0422Z" fill="white"/>
</svg>
